<mxfile host="65bd71144e">
    <diagram id="M-vd1DRSNvJqtd0JfYSb" name="Page-1">
        <mxGraphModel dx="878" dy="614" grid="1" gridSize="10" guides="1" tooltips="1" connect="1" arrows="1" fold="1" page="1" pageScale="1" pageWidth="827" pageHeight="1169" math="0" shadow="0">
            <root>
                <mxCell id="0"/>
                <mxCell id="1" parent="0"/>
                <mxCell id="20" style="edgeStyle=none;html=1;entryX=0;entryY=0.5;entryDx=0;entryDy=0;fontStyle=1" edge="1" parent="1" source="2" target="13">
                    <mxGeometry relative="1" as="geometry"/>
                </mxCell>
                <mxCell id="21" style="edgeStyle=none;html=1;entryX=0;entryY=0.5;entryDx=0;entryDy=0;fontStyle=1" edge="1" parent="1" source="2" target="14">
                    <mxGeometry relative="1" as="geometry"/>
                </mxCell>
                <mxCell id="22" style="edgeStyle=none;html=1;entryX=0;entryY=0.5;entryDx=0;entryDy=0;fontStyle=1" edge="1" parent="1" source="2" target="12">
                    <mxGeometry relative="1" as="geometry"/>
                </mxCell>
                <mxCell id="23" style="edgeStyle=none;html=1;entryX=0;entryY=0.5;entryDx=0;entryDy=0;fontStyle=1" edge="1" parent="1" source="2" target="6">
                    <mxGeometry relative="1" as="geometry"/>
                </mxCell>
                <mxCell id="24" style="edgeStyle=none;html=1;entryX=0;entryY=0.5;entryDx=0;entryDy=0;fontStyle=1" edge="1" parent="1" source="2" target="17">
                    <mxGeometry relative="1" as="geometry"/>
                </mxCell>
                <mxCell id="2" value="USUÁRIO CADASTRADO" style="shape=umlActor;verticalLabelPosition=bottom;verticalAlign=top;html=1;outlineConnect=0;fontStyle=1" vertex="1" parent="1">
                    <mxGeometry x="70" y="260" width="60" height="100" as="geometry"/>
                </mxCell>
                <mxCell id="15" value="" style="swimlane;startSize=0;fontStyle=3" vertex="1" parent="1">
                    <mxGeometry x="210" y="10" width="470" height="700" as="geometry"/>
                </mxCell>
                <mxCell id="6" value="&lt;div style=&quot;&quot;&gt;&lt;span style=&quot;background-color: initial; white-space: pre;&quot;&gt;&#9;&lt;/span&gt;&lt;span style=&quot;background-color: initial;&quot;&gt;Pesquisar receitas&lt;/span&gt;&lt;br&gt;&lt;/div&gt;" style="ellipse;whiteSpace=wrap;html=1;align=left;horizontal=1;verticalAlign=middle;fontStyle=1" vertex="1" parent="15">
                    <mxGeometry x="64" y="130" width="160" height="80" as="geometry"/>
                </mxCell>
                <mxCell id="13" value="&lt;div style=&quot;&quot;&gt;Realizar cadastro&lt;/div&gt;" style="ellipse;whiteSpace=wrap;html=1;align=center;horizontal=1;verticalAlign=middle;" vertex="1" parent="15">
                    <mxGeometry x="60" y="30" width="160" height="80" as="geometry"/>
                </mxCell>
                <mxCell id="12" value="&lt;div style=&quot;&quot;&gt;&lt;span style=&quot;&quot;&gt;Deixar feedback em receita&lt;/span&gt;&lt;br&gt;&lt;/div&gt;" style="ellipse;whiteSpace=wrap;html=1;align=center;horizontal=1;verticalAlign=middle;fontStyle=1" vertex="1" parent="15">
                    <mxGeometry x="264.5" y="240" width="160" height="80" as="geometry"/>
                </mxCell>
                <mxCell id="17" value="&lt;div style=&quot;&quot;&gt;&lt;span style=&quot;&quot;&gt;Ver detalhes de receita&lt;/span&gt;&lt;br&gt;&lt;/div&gt;" style="ellipse;whiteSpace=wrap;html=1;align=center;horizontal=1;verticalAlign=middle;fontStyle=1" vertex="1" parent="15">
                    <mxGeometry x="264.5" y="150" width="160" height="80" as="geometry"/>
                </mxCell>
                <mxCell id="14" value="&lt;div style=&quot;&quot;&gt;Fazer login&lt;/div&gt;" style="ellipse;whiteSpace=wrap;html=1;align=center;horizontal=1;verticalAlign=middle;fontStyle=1" vertex="1" parent="15">
                    <mxGeometry x="70" y="340" width="160" height="80" as="geometry"/>
                </mxCell>
                <mxCell id="26" value="&lt;div style=&quot;&quot;&gt;Editar receitas&lt;/div&gt;" style="ellipse;whiteSpace=wrap;html=1;align=center;horizontal=1;verticalAlign=middle;fontStyle=1" vertex="1" parent="15">
                    <mxGeometry x="264.5" y="390" width="160" height="80" as="geometry"/>
                </mxCell>
                <mxCell id="27" value="&lt;div style=&quot;&quot;&gt;Excluir receitas&lt;/div&gt;" style="ellipse;whiteSpace=wrap;html=1;align=center;horizontal=1;verticalAlign=middle;fontStyle=1" vertex="1" parent="15">
                    <mxGeometry x="264.5" y="480" width="160" height="80" as="geometry"/>
                </mxCell>
                <mxCell id="33" value="&lt;div style=&quot;&quot;&gt;Acessar a base de dados&lt;/div&gt;" style="ellipse;whiteSpace=wrap;html=1;align=center;horizontal=1;verticalAlign=middle;fontStyle=1" vertex="1" parent="15">
                    <mxGeometry x="264.5" y="575" width="160" height="80" as="geometry"/>
                </mxCell>
                <mxCell id="25" style="edgeStyle=none;html=1;entryX=0;entryY=0.5;entryDx=0;entryDy=0;fontStyle=1" edge="1" parent="1" source="18" target="14">
                    <mxGeometry relative="1" as="geometry"/>
                </mxCell>
                <mxCell id="28" style="edgeStyle=none;html=1;entryX=0;entryY=0.5;entryDx=0;entryDy=0;fontStyle=1" edge="1" parent="1" source="18" target="26">
                    <mxGeometry relative="1" as="geometry"/>
                </mxCell>
                <mxCell id="29" style="edgeStyle=none;html=1;entryX=0;entryY=0.5;entryDx=0;entryDy=0;fontStyle=1" edge="1" parent="1" source="18" target="27">
                    <mxGeometry relative="1" as="geometry"/>
                </mxCell>
                <mxCell id="35" style="edgeStyle=none;html=1;entryX=0;entryY=0.5;entryDx=0;entryDy=0;" edge="1" parent="1" source="18" target="33">
                    <mxGeometry relative="1" as="geometry"/>
                </mxCell>
                <mxCell id="18" value="ADMIN" style="shape=umlActor;verticalLabelPosition=bottom;verticalAlign=top;html=1;outlineConnect=0;fontStyle=1" vertex="1" parent="1">
                    <mxGeometry x="70" y="410" width="60" height="100" as="geometry"/>
                </mxCell>
            </root>
        </mxGraphModel>
    </diagram>
</mxfile>